<svg xmlns="http://www.w3.org/2000/svg" viewBox="0 0 512 512">
  <rect width="512" height="512" rx="80" fill="#0f172a"/>
  <g transform="translate(96, 96)" fill="#fff">
    <!-- Microphone icon -->
    <path d="M160 0c-26.5 0-48 21.5-48 48v144c0 26.5 21.5 48 48 48s48-21.5 48-48V48c0-26.5-21.5-48-48-48z"/>
    <path d="M64 144v48c0 53 43 96 96 96s96-43 96-96v-48h-32v48c0 35.3-28.7 64-64 64s-64-28.7-64-64v-48H64z"/>
    <rect x="144" y="288" width="32" height="48"/>
    <rect x="96" y="320" width="128" height="16" rx="8"/>
  </g>
</svg>
